<?xml version="1.0" encoding="UTF-8" standalone="no"?>
<!DOCTYPE svg PUBLIC "-//W3C//DTD SVG 1.1//EN" "http://www.w3.org/Graphics/SVG/1.1/DTD/svg11.dtd">
<svg width="100%" height="100%" viewBox="0 0 424 424" version="1.1" xmlns="http://www.w3.org/2000/svg" xmlns:xlink="http://www.w3.org/1999/xlink" xml:space="preserve" xmlns:serif="http://www.serif.com/" style="fill-rule:evenodd;clip-rule:evenodd;stroke-linecap:round;stroke-linejoin:round;stroke-miterlimit:1.5;">
    <g transform="matrix(1,0,0,1,-5853,-6255)">
        <rect id="DEM" x="4792" y="6066" width="3956" height="1997" style="fill:none;"/>
        <g id="DEM1" serif:id="DEM">
            <g id="white-squares" serif:id="white squares">
            </g>
            <g transform="matrix(0.41897,0,0,0.41897,5716.1,6275.68)">
                <rect x="346" y="294" width="326" height="326" style="fill:rgb(121,249,2);stroke:black;stroke-width:9.55px;"/>
            </g>
            <g transform="matrix(0.41897,0,0,0.41897,5852.69,6275.68)">
                <rect x="346" y="294" width="326" height="326" style="fill:rgb(181,181,181);stroke:black;stroke-width:9.55px;"/>
            </g>
            <g transform="matrix(0.41897,0,0,0.41897,5988.79,6275.68)">
                <rect x="346" y="294" width="326" height="326" style="fill:rgb(169,56,255);stroke:black;stroke-width:9.55px;"/>
            </g>
            <g transform="matrix(0.41897,0,0,0.41897,5988.79,6138.81)">
                <rect x="346" y="294" width="326" height="326" style="fill:rgb(248,49,170);stroke:black;stroke-width:9.55px;"/>
            </g>
            <g transform="matrix(0.41897,0,0,0.41897,5988.79,6412.36)">
                <rect x="346" y="294" width="326" height="326" style="fill:rgb(80,74,255);stroke:black;stroke-width:9.55px;"/>
            </g>
            <g transform="matrix(0.41897,0,0,0.41897,5716.1,6138.81)">
                <rect x="346" y="294" width="326" height="326" style="fill:rgb(242,250,2);stroke:black;stroke-width:9.55px;"/>
            </g>
            <g transform="matrix(0.41897,0,0,0.41897,5716.1,6412.36)">
                <rect x="346" y="294" width="326" height="326" style="fill:rgb(18,250,219);stroke:black;stroke-width:9.55px;"/>
            </g>
            <g transform="matrix(0.41897,0,0,0.41897,5852.69,6138.81)">
                <rect x="346" y="294" width="326" height="326" style="fill:rgb(248,170,1);stroke:black;stroke-width:9.55px;"/>
            </g>
            <g transform="matrix(0.41897,0,0,0.41897,5852.69,6412.36)">
                <rect x="346" y="294" width="326" height="326" style="fill:rgb(67,171,255);stroke:black;stroke-width:9.55px;"/>
            </g>
            <g transform="matrix(1,0,0,1,-355.897,16.6403)">
                <g transform="matrix(56,0,0,56,6406.46,6467.71)">
                    <path d="M0.04,-0.351C0.04,-0.474 0.061,-0.565 0.103,-0.625C0.145,-0.684 0.205,-0.714 0.284,-0.714C0.368,-0.714 0.43,-0.685 0.469,-0.626C0.508,-0.567 0.528,-0.475 0.528,-0.351C0.528,-0.228 0.507,-0.136 0.465,-0.076C0.422,-0.016 0.362,0.014 0.283,0.014C0.2,0.014 0.138,-0.018 0.099,-0.081C0.06,-0.144 0.04,-0.234 0.04,-0.351ZM0.17,-0.351C0.17,-0.27 0.179,-0.207 0.197,-0.163C0.214,-0.118 0.243,-0.096 0.284,-0.096C0.323,-0.096 0.352,-0.116 0.371,-0.157C0.389,-0.198 0.398,-0.262 0.398,-0.351C0.398,-0.432 0.389,-0.494 0.372,-0.538C0.355,-0.582 0.325,-0.604 0.283,-0.604C0.243,-0.604 0.214,-0.583 0.197,-0.542C0.179,-0.501 0.17,-0.437 0.17,-0.351Z" style="fill-rule:nonzero;"/>
                </g>
            </g>
            <g transform="matrix(1,0,0,1,-219.432,-121.288)">
                <g transform="matrix(56,0,0,56,6406.46,6467.71)">
                    <path d="M0.101,-0.11L0.24,-0.11L0.24,-0.505L0.255,-0.573L0.207,-0.514L0.118,-0.453L0.063,-0.528L0.291,-0.712L0.364,-0.712L0.364,-0.11L0.5,-0.11L0.5,-0L0.101,-0L0.101,-0.11Z" style="fill-rule:nonzero;"/>
                </g>
            </g>
            <g transform="matrix(1,0,0,1,-219.432,16.9471)">
                <g transform="matrix(56,0,0,56,6406.46,6467.71)">
                    <path d="M0.475,-0.529C0.475,-0.495 0.469,-0.461 0.457,-0.426C0.444,-0.391 0.429,-0.357 0.41,-0.324C0.391,-0.291 0.37,-0.259 0.347,-0.228C0.324,-0.197 0.301,-0.168 0.279,-0.142L0.226,-0.101L0.226,-0.096L0.298,-0.11L0.49,-0.11L0.49,-0L0.069,-0L0.069,-0.067C0.085,-0.084 0.103,-0.103 0.123,-0.126C0.143,-0.148 0.163,-0.171 0.184,-0.197C0.204,-0.222 0.224,-0.247 0.243,-0.274C0.262,-0.301 0.28,-0.327 0.295,-0.355C0.31,-0.382 0.323,-0.408 0.332,-0.433C0.341,-0.458 0.345,-0.482 0.345,-0.505C0.345,-0.532 0.337,-0.555 0.322,-0.573C0.306,-0.59 0.281,-0.599 0.247,-0.599C0.226,-0.599 0.204,-0.595 0.182,-0.586C0.159,-0.577 0.14,-0.565 0.125,-0.551L0.073,-0.643C0.099,-0.664 0.129,-0.682 0.162,-0.695C0.195,-0.708 0.233,-0.714 0.278,-0.714C0.307,-0.714 0.333,-0.71 0.357,-0.702C0.381,-0.694 0.402,-0.682 0.419,-0.667C0.436,-0.652 0.45,-0.632 0.46,-0.61C0.47,-0.587 0.475,-0.56 0.475,-0.529Z" style="fill-rule:nonzero;"/>
                </g>
            </g>
            <g transform="matrix(1,0,0,1,-219.432,155.894)">
                <g transform="matrix(56,0,0,56,6406.46,6467.71)">
                    <path d="M0.553,-0.195L0.443,-0.195L0.443,-0L0.322,-0L0.322,-0.195L0.019,-0.195L0.019,-0.269L0.336,-0.705L0.443,-0.705L0.443,-0.299L0.553,-0.299L0.553,-0.195ZM0.322,-0.452L0.331,-0.536L0.327,-0.536L0.293,-0.464L0.189,-0.329L0.139,-0.291L0.203,-0.299L0.322,-0.299L0.322,-0.452Z" style="fill-rule:nonzero;"/>
                </g>
            </g>
            <g transform="matrix(1,0,0,1,-355.948,155.894)">
                <g transform="matrix(56,0,0,56,6406.46,6467.71)">
                    <path d="M0.061,-0.171C0.061,-0.194 0.064,-0.215 0.07,-0.234C0.076,-0.252 0.085,-0.269 0.096,-0.284C0.107,-0.299 0.12,-0.312 0.135,-0.324C0.15,-0.336 0.166,-0.347 0.183,-0.357C0.15,-0.378 0.125,-0.401 0.106,-0.429C0.087,-0.456 0.078,-0.489 0.078,-0.529C0.078,-0.555 0.083,-0.579 0.093,-0.602C0.102,-0.625 0.116,-0.644 0.135,-0.661C0.153,-0.678 0.175,-0.691 0.201,-0.7C0.227,-0.709 0.256,-0.714 0.289,-0.714C0.319,-0.714 0.346,-0.71 0.371,-0.702C0.396,-0.694 0.417,-0.683 0.435,-0.668C0.452,-0.653 0.466,-0.636 0.476,-0.615C0.485,-0.594 0.49,-0.57 0.49,-0.545C0.49,-0.506 0.481,-0.472 0.464,-0.445C0.446,-0.418 0.42,-0.393 0.386,-0.37C0.426,-0.347 0.456,-0.321 0.477,-0.293C0.497,-0.265 0.507,-0.229 0.507,-0.185C0.507,-0.155 0.501,-0.128 0.491,-0.104C0.48,-0.079 0.464,-0.058 0.444,-0.041C0.424,-0.024 0.4,-0.01 0.372,-0.001C0.344,0.009 0.313,0.014 0.28,0.014C0.247,0.014 0.217,0.01 0.19,0.001C0.163,-0.009 0.139,-0.021 0.121,-0.037C0.101,-0.053 0.087,-0.072 0.077,-0.095C0.066,-0.118 0.061,-0.143 0.061,-0.171ZM0.383,-0.184C0.383,-0.199 0.379,-0.213 0.372,-0.226C0.365,-0.239 0.355,-0.25 0.344,-0.261C0.332,-0.271 0.319,-0.28 0.305,-0.289C0.29,-0.298 0.276,-0.306 0.261,-0.314C0.23,-0.296 0.208,-0.277 0.197,-0.256C0.185,-0.235 0.179,-0.214 0.179,-0.193C0.179,-0.166 0.188,-0.143 0.207,-0.125C0.225,-0.106 0.25,-0.096 0.283,-0.096C0.313,-0.096 0.337,-0.103 0.356,-0.118C0.374,-0.133 0.383,-0.155 0.383,-0.184ZM0.202,-0.527C0.202,-0.511 0.205,-0.497 0.211,-0.485C0.217,-0.473 0.225,-0.463 0.236,-0.454C0.246,-0.444 0.258,-0.436 0.271,-0.429C0.284,-0.421 0.297,-0.414 0.311,-0.407C0.351,-0.441 0.371,-0.478 0.371,-0.519C0.371,-0.547 0.363,-0.568 0.347,-0.583C0.33,-0.597 0.31,-0.604 0.287,-0.604C0.258,-0.604 0.236,-0.596 0.223,-0.581C0.209,-0.566 0.202,-0.548 0.202,-0.527Z" style="fill-rule:nonzero;"/>
                </g>
            </g>
            <g transform="matrix(1,0,0,1,-478.609,155.894)">
                <g transform="matrix(56,0,0,56,6374.71,6467.71)">
                    <path d="M0.101,-0.11L0.24,-0.11L0.24,-0.505L0.255,-0.573L0.207,-0.514L0.118,-0.453L0.063,-0.528L0.291,-0.712L0.364,-0.712L0.364,-0.11L0.5,-0.11L0.5,-0L0.101,-0L0.101,-0.11Z" style="fill-rule:nonzero;"/>
                </g>
                <g transform="matrix(56,0,0,56,6406.46,6467.71)">
                    <path d="M0.52,-0.217C0.52,-0.184 0.515,-0.154 0.504,-0.126C0.493,-0.098 0.477,-0.074 0.457,-0.053C0.437,-0.032 0.413,-0.016 0.385,-0.004C0.356,0.008 0.325,0.014 0.291,0.014C0.256,0.014 0.225,0.009 0.196,-0.003C0.167,-0.014 0.141,-0.03 0.12,-0.052C0.099,-0.074 0.082,-0.102 0.07,-0.135C0.058,-0.168 0.052,-0.207 0.052,-0.251C0.052,-0.317 0.062,-0.377 0.081,-0.43C0.099,-0.483 0.125,-0.53 0.158,-0.57C0.19,-0.609 0.228,-0.641 0.271,-0.666C0.314,-0.69 0.359,-0.706 0.407,-0.714L0.436,-0.611C0.403,-0.606 0.372,-0.595 0.344,-0.58C0.316,-0.565 0.291,-0.546 0.27,-0.525C0.248,-0.504 0.23,-0.48 0.215,-0.454C0.2,-0.427 0.189,-0.4 0.183,-0.372C0.196,-0.389 0.214,-0.403 0.235,-0.415C0.256,-0.426 0.283,-0.432 0.315,-0.432C0.345,-0.432 0.373,-0.427 0.398,-0.418C0.423,-0.409 0.445,-0.395 0.463,-0.377C0.481,-0.358 0.495,-0.336 0.505,-0.309C0.515,-0.282 0.52,-0.252 0.52,-0.217ZM0.394,-0.21C0.394,-0.285 0.357,-0.322 0.284,-0.322C0.257,-0.322 0.235,-0.316 0.217,-0.304C0.198,-0.292 0.185,-0.278 0.178,-0.262C0.177,-0.255 0.176,-0.248 0.176,-0.243L0.176,-0.227C0.176,-0.211 0.178,-0.195 0.183,-0.18C0.188,-0.164 0.195,-0.15 0.204,-0.138C0.213,-0.125 0.224,-0.115 0.238,-0.108C0.252,-0.1 0.269,-0.096 0.288,-0.096C0.319,-0.096 0.345,-0.107 0.365,-0.128C0.384,-0.149 0.394,-0.177 0.394,-0.21Z" style="fill-rule:nonzero;"/>
                </g>
            </g>
            <g transform="matrix(1,0,0,1,-478.609,18.0128)">
                <g transform="matrix(56,0,0,56,6374.71,6467.71)">
                    <path d="M0.241,-0.096C0.282,-0.096 0.314,-0.107 0.336,-0.129C0.357,-0.151 0.368,-0.178 0.368,-0.209C0.368,-0.247 0.357,-0.275 0.334,-0.293C0.311,-0.311 0.276,-0.32 0.227,-0.32L0.155,-0.32L0.155,-0.389L0.276,-0.554L0.333,-0.599L0.254,-0.59L0.086,-0.59L0.086,-0.7L0.468,-0.7L0.468,-0.629L0.327,-0.44L0.283,-0.413L0.283,-0.408L0.325,-0.414C0.348,-0.412 0.371,-0.407 0.392,-0.398C0.413,-0.389 0.431,-0.377 0.447,-0.361C0.462,-0.344 0.475,-0.324 0.484,-0.3C0.493,-0.276 0.498,-0.248 0.498,-0.217C0.498,-0.178 0.492,-0.144 0.479,-0.115C0.466,-0.086 0.448,-0.062 0.425,-0.043C0.401,-0.024 0.375,-0.009 0.344,-0C0.313,0.009 0.28,0.014 0.245,0.014C0.216,0.014 0.185,0.011 0.154,0.006C0.123,0.001 0.097,-0.007 0.078,-0.017L0.113,-0.125C0.13,-0.116 0.15,-0.109 0.171,-0.104C0.192,-0.099 0.215,-0.096 0.241,-0.096Z" style="fill-rule:nonzero;"/>
                </g>
                <g transform="matrix(56,0,0,56,6406.46,6467.71)">
                    <path d="M0.475,-0.529C0.475,-0.495 0.469,-0.461 0.457,-0.426C0.444,-0.391 0.429,-0.357 0.41,-0.324C0.391,-0.291 0.37,-0.259 0.347,-0.228C0.324,-0.197 0.301,-0.168 0.279,-0.142L0.226,-0.101L0.226,-0.096L0.298,-0.11L0.49,-0.11L0.49,-0L0.069,-0L0.069,-0.067C0.085,-0.084 0.103,-0.103 0.123,-0.126C0.143,-0.148 0.163,-0.171 0.184,-0.197C0.204,-0.222 0.224,-0.247 0.243,-0.274C0.262,-0.301 0.28,-0.327 0.295,-0.355C0.31,-0.382 0.323,-0.408 0.332,-0.433C0.341,-0.458 0.345,-0.482 0.345,-0.505C0.345,-0.532 0.337,-0.555 0.322,-0.573C0.306,-0.59 0.281,-0.599 0.247,-0.599C0.226,-0.599 0.204,-0.595 0.182,-0.586C0.159,-0.577 0.14,-0.565 0.125,-0.551L0.073,-0.643C0.099,-0.664 0.129,-0.682 0.162,-0.695C0.195,-0.708 0.233,-0.714 0.278,-0.714C0.307,-0.714 0.333,-0.71 0.357,-0.702C0.381,-0.694 0.402,-0.682 0.419,-0.667C0.436,-0.652 0.45,-0.632 0.46,-0.61C0.47,-0.587 0.475,-0.56 0.475,-0.529Z" style="fill-rule:nonzero;"/>
                </g>
            </g>
            <g transform="matrix(1,0,0,1,-478.609,-120.036)">
                <g transform="matrix(56,0,0,56,6374.71,6467.71)">
                    <path d="M0.52,-0.217C0.52,-0.184 0.515,-0.154 0.504,-0.126C0.493,-0.098 0.477,-0.074 0.457,-0.053C0.437,-0.032 0.413,-0.016 0.385,-0.004C0.356,0.008 0.325,0.014 0.291,0.014C0.256,0.014 0.225,0.009 0.196,-0.003C0.167,-0.014 0.141,-0.03 0.12,-0.052C0.099,-0.074 0.082,-0.102 0.07,-0.135C0.058,-0.168 0.052,-0.207 0.052,-0.251C0.052,-0.317 0.062,-0.377 0.081,-0.43C0.099,-0.483 0.125,-0.53 0.158,-0.57C0.19,-0.609 0.228,-0.641 0.271,-0.666C0.314,-0.69 0.359,-0.706 0.407,-0.714L0.436,-0.611C0.403,-0.606 0.372,-0.595 0.344,-0.58C0.316,-0.565 0.291,-0.546 0.27,-0.525C0.248,-0.504 0.23,-0.48 0.215,-0.454C0.2,-0.427 0.189,-0.4 0.183,-0.372C0.196,-0.389 0.214,-0.403 0.235,-0.415C0.256,-0.426 0.283,-0.432 0.315,-0.432C0.345,-0.432 0.373,-0.427 0.398,-0.418C0.423,-0.409 0.445,-0.395 0.463,-0.377C0.481,-0.358 0.495,-0.336 0.505,-0.309C0.515,-0.282 0.52,-0.252 0.52,-0.217ZM0.394,-0.21C0.394,-0.285 0.357,-0.322 0.284,-0.322C0.257,-0.322 0.235,-0.316 0.217,-0.304C0.198,-0.292 0.185,-0.278 0.178,-0.262C0.177,-0.255 0.176,-0.248 0.176,-0.243L0.176,-0.227C0.176,-0.211 0.178,-0.195 0.183,-0.18C0.188,-0.164 0.195,-0.15 0.204,-0.138C0.213,-0.125 0.224,-0.115 0.238,-0.108C0.252,-0.1 0.269,-0.096 0.288,-0.096C0.319,-0.096 0.345,-0.107 0.365,-0.128C0.384,-0.149 0.394,-0.177 0.394,-0.21Z" style="fill-rule:nonzero;"/>
                </g>
                <g transform="matrix(56,0,0,56,6406.46,6467.71)">
                    <path d="M0.553,-0.195L0.443,-0.195L0.443,-0L0.322,-0L0.322,-0.195L0.019,-0.195L0.019,-0.269L0.336,-0.705L0.443,-0.705L0.443,-0.299L0.553,-0.299L0.553,-0.195ZM0.322,-0.452L0.331,-0.536L0.327,-0.536L0.293,-0.464L0.189,-0.329L0.139,-0.291L0.203,-0.299L0.322,-0.299L0.322,-0.452Z" style="fill-rule:nonzero;"/>
                </g>
            </g>
            <g transform="matrix(1,0,0,1,-321.124,-120.036)">
                <g transform="matrix(56,0,0,56,6342.96,6467.71)">
                    <path d="M0.101,-0.11L0.24,-0.11L0.24,-0.505L0.255,-0.573L0.207,-0.514L0.118,-0.453L0.063,-0.528L0.291,-0.712L0.364,-0.712L0.364,-0.11L0.5,-0.11L0.5,-0L0.101,-0L0.101,-0.11Z" style="fill-rule:nonzero;"/>
                </g>
                <g transform="matrix(56,0,0,56,6374.71,6467.71)">
                    <path d="M0.475,-0.529C0.475,-0.495 0.469,-0.461 0.457,-0.426C0.444,-0.391 0.429,-0.357 0.41,-0.324C0.391,-0.291 0.37,-0.259 0.347,-0.228C0.324,-0.197 0.301,-0.168 0.279,-0.142L0.226,-0.101L0.226,-0.096L0.298,-0.11L0.49,-0.11L0.49,-0L0.069,-0L0.069,-0.067C0.085,-0.084 0.103,-0.103 0.123,-0.126C0.143,-0.148 0.163,-0.171 0.184,-0.197C0.204,-0.222 0.224,-0.247 0.243,-0.274C0.262,-0.301 0.28,-0.327 0.295,-0.355C0.31,-0.382 0.323,-0.408 0.332,-0.433C0.341,-0.458 0.345,-0.482 0.345,-0.505C0.345,-0.532 0.337,-0.555 0.322,-0.573C0.306,-0.59 0.281,-0.599 0.247,-0.599C0.226,-0.599 0.204,-0.595 0.182,-0.586C0.159,-0.577 0.14,-0.565 0.125,-0.551L0.073,-0.643C0.099,-0.664 0.129,-0.682 0.162,-0.695C0.195,-0.708 0.233,-0.714 0.278,-0.714C0.307,-0.714 0.333,-0.71 0.357,-0.702C0.381,-0.694 0.402,-0.682 0.419,-0.667C0.436,-0.652 0.45,-0.632 0.46,-0.61C0.47,-0.587 0.475,-0.56 0.475,-0.529Z" style="fill-rule:nonzero;"/>
                </g>
                <g transform="matrix(56,0,0,56,6406.46,6467.71)">
                    <path d="M0.061,-0.171C0.061,-0.194 0.064,-0.215 0.07,-0.234C0.076,-0.252 0.085,-0.269 0.096,-0.284C0.107,-0.299 0.12,-0.312 0.135,-0.324C0.15,-0.336 0.166,-0.347 0.183,-0.357C0.15,-0.378 0.125,-0.401 0.106,-0.429C0.087,-0.456 0.078,-0.489 0.078,-0.529C0.078,-0.555 0.083,-0.579 0.093,-0.602C0.102,-0.625 0.116,-0.644 0.135,-0.661C0.153,-0.678 0.175,-0.691 0.201,-0.7C0.227,-0.709 0.256,-0.714 0.289,-0.714C0.319,-0.714 0.346,-0.71 0.371,-0.702C0.396,-0.694 0.417,-0.683 0.435,-0.668C0.452,-0.653 0.466,-0.636 0.476,-0.615C0.485,-0.594 0.49,-0.57 0.49,-0.545C0.49,-0.506 0.481,-0.472 0.464,-0.445C0.446,-0.418 0.42,-0.393 0.386,-0.37C0.426,-0.347 0.456,-0.321 0.477,-0.293C0.497,-0.265 0.507,-0.229 0.507,-0.185C0.507,-0.155 0.501,-0.128 0.491,-0.104C0.48,-0.079 0.464,-0.058 0.444,-0.041C0.424,-0.024 0.4,-0.01 0.372,-0.001C0.344,0.009 0.313,0.014 0.28,0.014C0.247,0.014 0.217,0.01 0.19,0.001C0.163,-0.009 0.139,-0.021 0.121,-0.037C0.101,-0.053 0.087,-0.072 0.077,-0.095C0.066,-0.118 0.061,-0.143 0.061,-0.171ZM0.383,-0.184C0.383,-0.199 0.379,-0.213 0.372,-0.226C0.365,-0.239 0.355,-0.25 0.344,-0.261C0.332,-0.271 0.319,-0.28 0.305,-0.289C0.29,-0.298 0.276,-0.306 0.261,-0.314C0.23,-0.296 0.208,-0.277 0.197,-0.256C0.185,-0.235 0.179,-0.214 0.179,-0.193C0.179,-0.166 0.188,-0.143 0.207,-0.125C0.225,-0.106 0.25,-0.096 0.283,-0.096C0.313,-0.096 0.337,-0.103 0.356,-0.118C0.374,-0.133 0.383,-0.155 0.383,-0.184ZM0.202,-0.527C0.202,-0.511 0.205,-0.497 0.211,-0.485C0.217,-0.473 0.225,-0.463 0.236,-0.454C0.246,-0.444 0.258,-0.436 0.271,-0.429C0.284,-0.421 0.297,-0.414 0.311,-0.407C0.351,-0.441 0.371,-0.478 0.371,-0.519C0.371,-0.547 0.363,-0.568 0.347,-0.583C0.33,-0.597 0.31,-0.604 0.287,-0.604C0.258,-0.604 0.236,-0.596 0.223,-0.581C0.209,-0.566 0.202,-0.548 0.202,-0.527Z" style="fill-rule:nonzero;"/>
                </g>
            </g>
            <g transform="matrix(1,-0,-0,1,5853,6255)">
                <path d="M203.96,130.965L212.943,113L221.925,130.965L203.96,130.965Z"/>
                <path d="M212.943,143.571L212.943,127.372" style="fill:none;stroke:black;stroke-width:4px;stroke-miterlimit:10;"/>
            </g>
            <g transform="matrix(1,-0,-0,1,5853,6255)">
                <path d="M221.925,290.035L212.943,308L203.96,290.035L221.925,290.035Z"/>
                <path d="M212.943,280.532L212.943,293.628" style="fill:none;stroke:black;stroke-width:4px;stroke-miterlimit:10;"/>
            </g>
            <g transform="matrix(1.36342,0,0,1,-2229.28,0)">
                <g transform="matrix(0.733451,-0,-0,1,5927.96,6255)">
                    <path d="M297.035,203.17L315,212.153L297.035,221.135L297.035,203.17Z"/>
                    <path d="M281.235,212.153L300.628,212.153" style="fill:none;stroke:black;stroke-width:4px;stroke-miterlimit:10;"/>
                </g>
            </g>
            <g transform="matrix(1.32453,0,0,1,-1946.44,0)">
                <g transform="matrix(0.754983,-0,-0,1,5888.44,6255)">
                    <path d="M129.965,221.135L112,212.153L129.965,203.17L129.965,221.135Z"/>
                    <path d="M144.651,212.153L126.372,212.153" style="fill:none;stroke:black;stroke-width:4px;stroke-miterlimit:10;"/>
                </g>
            </g>
            <g transform="matrix(1,-0,-0,1,5853,6255)">
                <path d="M124.932,136.845L118.58,117.79L137.635,124.142L124.932,136.845Z"/>
                <path d="M144.651,143.861C144.651,143.861 136.061,135.271 128.743,127.953" style="fill:none;stroke:black;stroke-width:4px;stroke-miterlimit:10;"/>
            </g>
            <g transform="matrix(1,-0,-0,1,5853,6255)">
                <path d="M286.433,125.67L305.488,119.318L299.136,138.373L286.433,125.67Z"/>
                <path d="M281.235,143.571C281.235,143.571 288.684,136.122 295.325,129.481" style="fill:none;stroke:black;stroke-width:4px;stroke-miterlimit:10;"/>
            </g>
            <g transform="matrix(1,-0,-0,1,5853,6255)">
                <path d="M303.582,290.088L309.933,309.143L290.879,302.792L303.582,290.088Z"/>
                <path d="M281.235,280.445C281.235,280.445 291.516,290.726 299.771,298.981" style="fill:none;stroke:black;stroke-width:4px;stroke-miterlimit:10;"/>
            </g>
            <g transform="matrix(1,-0,-0,1,5853,6255)">
                <path d="M138.776,299.023L119.721,305.375L126.072,286.32L138.776,299.023Z"/>
                <path d="M144.651,280.445C144.651,280.445 136.78,288.316 129.883,295.212" style="fill:none;stroke:black;stroke-width:4px;stroke-miterlimit:10;"/>
            </g>
        </g>
    </g>
</svg>
